<svg width="20" height="20" viewBox="0 0 20 20" fill="none" xmlns="http://www.w3.org/2000/svg">
<path d="M7.17166 16.3874C6.85815 16.3874 6.55168 16.4754 6.29101 16.6405C6.03033 16.8055 5.82716 17.04 5.70719 17.3144C5.58721 17.5888 5.55582 17.8908 5.61698 18.1821C5.67815 18.4734 5.82912 18.7409 6.0508 18.951C6.27249 19.161 6.55493 19.304 6.86242 19.3619C7.16991 19.4199 7.48862 19.3901 7.77827 19.2765C8.06792 19.1628 8.31548 18.9703 8.48966 18.7234C8.66384 18.4764 8.7568 18.1861 8.7568 17.8891C8.7568 17.4908 8.5898 17.1088 8.29253 16.8272C7.99526 16.5456 7.59207 16.3874 7.17166 16.3874ZM18.2676 13.384H5.58653C5.30626 13.384 5.03747 13.2785 4.83929 13.0907C4.64111 12.903 4.52977 12.6483 4.52977 12.3828C4.52977 12.1173 4.64111 11.8627 4.83929 11.6749C5.03747 11.4872 5.30626 11.3817 5.58653 11.3817H14.5597C15.2481 11.3796 15.9172 11.1662 16.4668 10.7735C17.0164 10.3808 17.4169 9.82989 17.6082 9.20342L19.2836 3.64777C19.3286 3.49877 19.3364 3.34193 19.3065 3.18958C19.2766 3.03723 19.2098 2.89353 19.1113 2.7698C19.0128 2.64608 18.8853 2.5457 18.7389 2.47657C18.5925 2.40744 18.4312 2.37145 18.2676 2.37142H5.31079C5.09202 1.78811 4.68875 1.28289 4.15591 0.924587C3.62308 0.566283 2.98659 0.372325 2.33318 0.369141H1.35949C1.07922 0.369141 0.810432 0.474617 0.612252 0.662368C0.414071 0.850118 0.302734 1.10476 0.302734 1.37028C0.302734 1.6358 0.414071 1.89044 0.612252 2.07819C0.810432 2.26594 1.07922 2.37142 1.35949 2.37142H2.33318C2.56258 2.37218 2.78556 2.44332 2.96871 2.57418C3.15186 2.70505 3.28535 2.8886 3.34917 3.09735L3.51352 3.64271L3.51377 3.64777L5.24752 9.39651C4.44075 9.47873 3.69796 9.85088 3.17211 10.4363C2.64626 11.0218 2.37738 11.776 2.42082 12.5436C2.46427 13.3112 2.81674 14.0338 3.40565 14.5626C3.99457 15.0914 4.7751 15.3862 5.58653 15.3862H18.2676C18.5479 15.3862 18.8167 15.2808 19.0149 15.093C19.2131 14.9053 19.3244 14.6506 19.3244 14.3851C19.3244 14.1196 19.2131 13.8649 19.0149 13.6772C18.8167 13.4894 18.5479 13.384 18.2676 13.384ZM16.8667 4.3737L15.5762 8.65298C15.5124 8.8619 15.3789 9.04562 15.1957 9.17659C15.0124 9.30756 14.7892 9.37871 14.5597 9.3794H7.44049L7.17108 8.48617L5.93147 4.3737H16.8667ZM15.6257 16.3874C15.3122 16.3874 15.0058 16.4754 14.7451 16.6405C14.4844 16.8055 14.2812 17.04 14.1613 17.3144C14.0413 17.5888 14.0099 17.8908 14.0711 18.1821C14.1322 18.4734 14.2832 18.7409 14.5049 18.951C14.7266 19.161 15.009 19.304 15.3165 19.3619C15.624 19.4199 15.9427 19.3901 16.2323 19.2765C16.522 19.1628 16.7695 18.9703 16.9437 18.7234C17.1179 18.4764 17.2109 18.1861 17.2109 17.8891C17.2109 17.4908 17.0439 17.1088 16.7466 16.8272C16.4493 16.5456 16.0461 16.3874 15.6257 16.3874Z" fill="white"/>
</svg>
